#!OML:ASF H:\BreakDance\Project 1\Capture day 1\Session 1\Male.ASF
:FULLY-SPECIFIED
:DEGREES
749
root -3.54211 14.3176 -15.2146 -490.122 -142.728 507.488
lowerback 12.7694 1.47037 0.218439
upperback 8.35997 1.67615 -3.48099
thorax 1.74278 0.821957 -3.94535
lowerneck -3.13073 0.566975 0.651502
upperneck -1.1354 0.605792 14.128
head 0.147832 0.279246 4.55337
rclavicle -2.8625e-014 -2.38542e-014
rhumerus -41.5102 1.47633 -86.2433
rradius 28.7061
rwrist -7.99633
rhand -18.4812 326.375
rfingers 7.12502
rthumb 7.80594 -423.461
lclavicle -2.8625e-014 -2.38542e-014
lhumerus 44.3013 -14.6095 48.9817
lradius 20.621
lwrist -3.89483
lhand -34.5864 334.687
lfingers 7.12502
lthumb -7.74562 4.52529
rfemur -30.222 -17.5985 26.0603
rtibia 39.1598
rfoot -28.7557 -5.21286
rtoes -21.7756
lfemur -89.4293 4.41483 -2.65276
ltibia 55.0641
lfoot -20.0487 0.192901
ltoes -46.6387
750
root -3.54013 14.406 -15.2933 -491.329 -144.591 508.656
lowerback 12.384 1.36894 0.741223
upperback 8.29475 1.61723 -3.58994
thorax 1.89806 0.825299 -4.34013
lowerneck -3.34474 0.308143 0.749439
upperneck 0.0530986 0.0769269 14.8251
head 0.615554 0.0844279 4.79376
rclavicle 0 -3.02153e-014
rhumerus -41.1561 1.28385 -86.1255
rradius 29.3666
rwrist -8.99371
rhand -18.8721 326.449
rfingers 7.12502
rthumb 7.42864 -423.4
lclavicle 0 -3.02153e-014
lhumerus 44.3636 -16.0164 46.6821
lradius 21.4456
lwrist -2.24583
lhand -34.4978 334.668
lfingers 7.12502
lthumb -7.66006 4.50887
rfemur -29.4005 -18.3425 26.7656
rtibia 38.2926
rfoot -29.1971 -4.82201
rtoes -18.5027
lfemur -89.1102 5.42001 -5.78527
ltibia 53.9827
lfoot -22.5144 1.06088
ltoes -47.0868
751
root -3.53715 14.4805 -15.3699 -492.372 -146.45 509.7
lowerback 11.96 1.28318 1.26204
upperback 8.20935 1.57423 -3.71556
thorax 2.05489 0.837197 -4.7536
lowerneck -3.47835 0.0666027 0.833783
upperneck 1.11694 -0.427587 15.9305
head 0.952917 -0.0903737 4.63655
rclavicle -3.81667e-014 7.95139e-015
rhumerus -40.9119 1.13818 -85.952
rradius 30.0862
rwrist -10.009
rhand -19.1968 326.326
rfingers 7.12502
rthumb 7.11523 -423.535
lclavicle -3.81667e-014 7.95139e-015
lhumerus 44.5008 -17.2264 44.4502
lradius 22.2101
lwrist -1.08159
lhand -34.3189 334.677
lfingers 7.12502
lthumb -7.48737 4.52432
rfemur -28.6549 -19.0983 27.5297
rtibia 37.48
rfoot -29.6082 -4.84624
rtoes -15.7379
lfemur -88.9824 6.65094 -9.1468
ltibia 53.2059
lfoot -24.4571 2.10443
ltoes -47.8159
752
root -3.53035 14.5425 -15.4447 -493.26 -148.28 510.597
lowerback 11.5355 1.2229 1.76315
upperback 8.09319 1.55764 -3.82959
thorax 2.18153 0.860479 -5.14762
lowerneck -3.52684 -0.156882 1.00139
upperneck 1.95916 -0.886301 16.5682
head 1.24889 -0.25997 4.79828
rclavicle -6.36111e-015 5.40694e-014
rhumerus -40.7977 1.09112 -85.6736
rradius 30.8745
rwrist -11.0441
rhand -19.424 326.056
rfingers 7.12502
rthumb 6.89588 -423.812
lclavicle -6.36111e-015 5.40694e-014
lhumerus 44.6183 -18.284 42.1905
lradius 23.0166
lwrist -0.192019
lhand -34.0425 334.741
lfingers 7.12502
lthumb -7.22063 4.59773
rfemur -27.9479 -19.7406 28.3243
rtibia 36.665
rfoot -29.9803 -5.3439
rtoes -13.6045
lfemur -89.0198 7.94277 -12.2794
ltibia 52.8801
lfoot -25.7886 3.35999
ltoes -48.307
753
root -3.51765 14.5949 -15.5185 -494.025 -150.035 511.345
lowerback 11.1582 1.20197 2.19532
upperback 7.94495 1.58135 -3.91454
thorax 2.25045 0.898259 -5.47738
lowerneck -3.5162 -0.374073 1.17139
upperneck 2.64214 -1.31457 17.1126
head 1.48714 -0.423166 4.9307
rclavicle -7.95139e-014 -6.83819e-014
rhumerus -40.8078 1.15581 -85.2335
rradius 31.7112
rwrist -12.0625
rhand -19.5281 325.726
rfingers 7.12502
rthumb 6.79542 -424.145
lclavicle -7.95139e-014 -6.83819e-014
lhumerus 44.6726 -19.0795 40.1786
lradius 23.7733
lwrist 0.275103
lhand -33.6912 334.804
lfingers 7.12502
lthumb -6.8815 4.67187
rfemur -27.2489 -20.2181 29.1027
rtibia 35.812
rfoot -30.4607 -6.64719
rtoes -13.8293
lfemur -89.1445 9.11975 -14.7278
ltibia 53.1176
lfoot -26.5209 4.90592
ltoes -48.3774
754
root -3.49775 14.639 -15.5923 -494.709 -151.672 511.96
lowerback 10.8637 1.22986 2.53512
upperback 7.78003 1.65694 -3.97256
thorax 2.25964 0.954769 -5.73275
lowerneck -3.49931 -0.597353 1.28235
upperneck 3.19742 -1.73127 17.6051
head 1.6875 -0.586618 5.05656
rclavicle -1.08139e-013 -2.38542e-014
rhumerus -40.8954 1.27563 -84.5879
rradius 32.5544
rwrist -13.0107
rhand -19.5755 325.403
rfingers 7.12502
rthumb 6.7496 -424.469
lclavicle -1.08139e-013 -2.38542e-014
lhumerus 44.6971 -19.6031 38.4937
lradius 24.4405
lwrist 0.394556
lhand -33.3024 334.822
lfingers 7.12502
lthumb -6.50611 4.70235
rfemur -26.5545 -20.5466 29.8231
rtibia 34.9363
rfoot -30.9247 -8.46909
rtoes -15.3968
lfemur -89.2637 10.0458 -16.1692
ltibia 53.9751
lfoot -26.7699 6.7828
ltoes -48.0557
755
root -3.4693 14.6779 -15.6669 -495.342 -153.155 512.467
lowerback 10.6698 1.31761 2.76857
upperback 7.62236 1.79912 -4.01398
thorax 2.22669 1.03739 -5.91768
lowerneck -3.58501 -0.834228 1.30783
upperneck 3.67843 -2.15916 18.0571
head 1.88672 -0.753958 5.18307
rclavicle 4.13472e-014 6.36111e-014
rhumerus -40.9978 1.3424 -83.6993
rradius 33.3502
rwrist -13.8045
rhand -19.6715 325.149
rfingers 7.12502
rthumb 6.65698 -424.726
lclavicle 4.13472e-014 6.36111e-014
lhumerus 44.7673 -19.8676 37.1671
lradius 24.9888
lwrist 0.286398
lhand -32.9293 334.741
lfingers 7.12502
lthumb -6.146 4.63199
rfemur -25.9033 -20.7937 30.4616
rtibia 34.1011
rfoot -31.3003 -10.542
rtoes -17.6597
lfemur -89.3073 10.6662 -16.4736
ltibia 55.4502
lfoot -26.7842 8.6965
ltoes -47.0873
756
root -3.43254 14.7117 -15.7428 -495.93 -154.456 512.877
lowerback 10.5842 1.46267 2.86581
upperback 7.47825 2.00345 -4.03787
thorax 2.15179 1.14296 -6.01381
lowerneck -3.8047 -1.08047 1.20885
upperneck 4.10992 -2.59678 18.4962
head 2.09866 -0.921823 5.32495
rclavicle -1.24042e-013 4.29375e-014
rhumerus -41.0672 1.31404 -82.5529
rradius 34.0385
rwrist -14.3607
rhand -19.8551 325.031
rfingers 7.12502
rthumb 6.47969 -424.85
lclavicle -1.24042e-013 4.29375e-014
lhumerus 44.8178 -19.8672 36.2121
lradius 25.4621
lwrist 0.0656616
lhand -32.6384 334.492
lfingers 7.12502
lthumb -5.86511 4.39108
rfemur -25.3664 -21.0317 31.016
rtibia 33.3952
rfoot -31.5366 -12.4026
rtoes -19.5501
lfemur -89.2682 11.03 -15.7603
ltibia 57.4831
lfoot -26.77 10.3742
ltoes -45.5607
757
root -3.38901 14.7383 -15.8198 -496.468 -155.557 513.2
lowerback 10.6009 1.65438 2.80092
upperback 7.34292 2.25444 -4.05506
thorax 2.0291 1.26319 -6.01705
lowerneck -4.13144 -1.32256 1.00734
upperneck 4.48012 -3.02225 18.929
head 2.31395 -1.08181 5.48101
rclavicle -2.8625e-014 4.92986e-014
rhumerus -41.0608 1.15641 -81.1673
rradius 34.5657
rwrist -14.6355
rhand -20.091 325.072
rfingers 7.12502
rthumb 6.25199 -424.816
lclavicle -2.8625e-014 4.92986e-014
lhumerus 44.8692 -19.5834 35.6671
lradius 25.793
lwrist -0.268738
lhand -32.4883 334.064
lfingers 7.12502
lthumb -5.72021 3.96716
rfemur -25.0117 -21.2965 31.4842
rtibia 32.8931
rfoot -31.6099 -13.7103
rtoes -20.6236
lfemur -89.1917 11.2583 -14.3322
ltibia 59.9739
lfoot -26.7559 11.6706
ltoes -43.8586
